<svg xmlns="http://www.w3.org/2000/svg" height="23" width="23" viewBox="0 0 22 20"> <desc stroke="none" fill="#ffffff" stroke-width="1px">ほしいものリストボタン</desc> <g stroke="none" fill="#ffffff" stroke-width="1px"><path d="M11 20c-.3 0-.5-.1-.7-.3l-8-8C.8 10.2 0 8.5 0 6.7 0 3 3 0 6.7 0 8.3 0 9.8.7 11 1.9 12.2.7 13.7 0 15.3 0 19 0 22 3 22 6.7c0 2.2-1.3 3.9-2.3 5.1l-8 7.9c-.2.2-.5.3-.7.3zM6.7 2C4.1 2 2 4.1 2 6.7c0 1.6.9 2.8 1.7 3.6l7.3 7.3 7.2-7.2C19.4 9.1 20 7.9 20 6.7 20 4.1 17.9 2 15.3 2c-1.3 0-2.5.8-3.5 2.1-.4.5-1.2.5-1.6 0C9.2 2.8 8 2 6.7 2z" stroke="none" fill="#ffffff" stroke-width="1px"></path></g> </svg>