<svg xmlns="http://www.w3.org/2000/svg" height="23" width="23" viewBox="0 0 23 23"> <desc stroke="none" fill="#ffffff" stroke-width="1px">検索ボタン</desc> <g stroke="none" fill="#ffffff" stroke-width="1px"><path d="M21.7 20.4l-3.5-3.5c1.4-1.7 2.2-3.8 2.2-6.1C20.3 5.4 16 1 10.7 1 5.4 1 1 5.4 1 10.7s4.3 9.7 9.6 9.7c2.3 0 4.4-.8 6.1-2.2l3.5 3.5c.2.2.5.3.7.3.3 0 .5-.1.7-.3.4-.3.4-.9.1-1.3zM3 10.7C3 6.5 6.5 3 10.7 3s7.6 3.5 7.6 7.7c0 4.3-3.4 7.7-7.6 7.7S3 15 3 10.7z" stroke="none" fill="#ffffff" stroke-width="1px"></path></g> </svg>